<?xml version="1.0" standalone="no"?><!DOCTYPE svg PUBLIC "-//W3C//DTD SVG 1.1//EN" "http://www.w3.org/Graphics/SVG/1.1/DTD/svg11.dtd"><svg t="1728721629433" class="icon" viewBox="0 0 1024 1024" version="1.1" xmlns="http://www.w3.org/2000/svg" p-id="7031" xmlns:xlink="http://www.w3.org/1999/xlink" width="200" height="200"><path d="M416 824.6L225.1 668.7 716 96.1 906.9 252z" fill="#2c2c2c" p-id="7032"></path><path d="M786 927.3c-4.5 0-8.8-1.6-12.2-4.4L524.5 713.8c-8.1-6.8-9.1-18.8-2.4-26.8 6.8-8 18.8-9.1 26.8-2.4l234.7 196.8L915 724.8 674.6 523.2c-8.1-6.8-9.1-18.8-2.4-26.8 6.8-8 18.8-9.1 26.8-2.4l255 213.9c8.1 6.8 9.1 18.8 2.4 26.8L800.6 920.5c-3.3 3.9-7.9 6.3-12.9 6.7-0.6 0.1-1.2 0.1-1.7 0.1zM340.2 553.5c-4.3 0-8.6-1.5-12.2-4.4L71 333.6c-8.1-6.8-9.1-18.8-2.4-26.8L224.4 121c6.8-8 18.8-9.1 26.8-2.4l253.5 212.6c8.1 6.8 9.1 18.8 2.4 26.8-6.8 8.1-18.7 9.1-26.8 2.4L241.4 160 110.1 316.6l242.3 203.2c8.1 6.8 9.1 18.8 2.4 26.8-3.8 4.6-9.2 6.9-14.6 6.9z" fill="#2c2c2c" p-id="7033"></path><path d="M238.8 318.2c-4.3 0-8.6-1.5-12.2-4.4-8.1-6.8-9.1-18.8-2.4-26.8l77.9-92.9c6.8-8 18.8-9.1 26.8-2.4 8.1 6.8 9.1 18.8 2.4 26.8l-77.9 92.9c-3.7 4.5-9.1 6.8-14.6 6.8zM379.3 364.8c-4.3 0-8.6-1.5-12.2-4.4-8.1-6.8-9.1-18.8-2.4-26.8l42.9-51.1c6.8-8.1 18.8-9.1 26.8-2.4 8.1 6.8 9.1 18.8 2.4 26.8L393.9 358c-3.8 4.5-9.2 6.8-14.6 6.8zM800.9 718.3c-4.3 0-8.6-1.5-12.2-4.4-8.1-6.8-9.1-18.8-2.4-26.8l42.9-51.1c6.8-8.1 18.8-9.1 26.8-2.4 8.1 6.8 9.1 18.8 2.4 26.8l-42.9 51.1c-3.7 4.5-9.1 6.8-14.6 6.8zM660.5 671.7c-4.3 0-8.6-1.5-12.2-4.4-8.1-6.8-9.1-18.8-2.4-26.8l77.9-92.9c6.8-8.1 18.8-9.1 26.8-2.4 8.1 6.8 9.1 18.8 2.4 26.8l-77.9 92.9c-3.8 4.5-9.2 6.8-14.6 6.8zM416 843.6c-4.2 0-8.5-1.4-12-4.3L213 683.5c-4-3.2-6.5-8-6.9-13.1-0.4-5.1 1.2-10.2 4.5-14.1L701.5 83.7c6.7-7.8 18.5-8.9 26.5-2.4l190.9 155.9c4 3.2 6.5 8 6.9 13.1 0.4 5.1-1.2 10.2-4.5 14.1L430.4 837c-3.7 4.4-9.1 6.6-14.4 6.6zM252.2 666.3l161.4 131.8 466.1-543.7-161.4-131.8-466.1 543.7z" fill="#2c2c2c" p-id="7034"></path><path d="M168.1 952.4c-4.3 0-8.6-1.5-12.1-4.3-5.3-4.3-7.8-11.1-6.8-17.8l40.9-251.4c1.7-10.4 11.6-17.4 21.9-15.8 10.4 1.7 17.4 11.5 15.8 21.9l-35.6 218.9 207.3-78.6c9.8-3.8 20.8 1.2 24.6 11 3.7 9.8-1.2 20.8-11 24.6L175 951.2c-2.4 0.8-4.7 1.2-6.9 1.2z" fill="#2c2c2c" p-id="7035"></path></svg>