<?xml version="1.0" standalone="no"?><!DOCTYPE svg PUBLIC "-//W3C//DTD SVG 1.1//EN" "http://www.w3.org/Graphics/SVG/1.1/DTD/svg11.dtd"><svg t="1728876388402" class="icon" viewBox="0 0 1181 1024" version="1.1" xmlns="http://www.w3.org/2000/svg" p-id="2794" xmlns:xlink="http://www.w3.org/1999/xlink" width="230.6640625" height="200"><path d="M874.73664 315.076923a295.384615 295.384615 0 1 1 0 590.769231 295.384615 295.384615 0 0 1 0-590.769231z m0 39.384615a256 256 0 1 0 165.533538 60.652308v108.347077h-279.867076v31.625846c-0.433231 91.844923-17.762462 170.692923-51.987693 236.544l-32.059077-28.593231c28.16-53.720615 42.456615-123.037538 42.889846-207.950769v-147.731692h311.37477A254.897231 254.897231 0 0 0 874.776025 354.461538zM331.819717 146.471385a19.692308 19.692308 0 0 1 9.452308 9.373538l163.879384 347.136 96.059077-192.078769a19.692308 19.692308 0 0 1 35.209846 0l22.055385 44.110769a334.020923 334.020923 0 0 0-118.429539 254.227692l-36.942769 73.885539-179.672615-380.534154-210.471385 445.676308h456.704c12.957538 28.672 29.814154 55.177846 49.939693 78.848L19.69664 827.076923a19.692308 19.692308 0 0 1-17.801846-28.120615l303.655384-643.111385a19.692308 19.692308 0 0 1 26.230154-9.373538z m674.658461 387.387077l18.668308 31.192615c-36.391385 8.231385-74.082462 14.729846-113.506461 19.495385v28.59323l120.438153-10.830769v34.225231l-120.438153 10.830769v29.026462l148.164923-13.430154v35.524923l-148.164923 13.430154v23.827692c0 9.097846 2.599385 13.863385 8.664615 13.863385h84.48c7.798154 0 13.863385-1.732923 17.329231-4.765539 4.332308-3.465846 7.364923-14.296615 8.664615-32.492308l35.958154 11.697231c-3.032615 30.326154-9.097846 48.521846-17.762462 54.587077-8.270769 5.198769-20.795077 8.231385-37.257846 8.231385h-103.108923c-25.127385 0-37.691077-14.296615-37.691077-42.456616v-29.026461l-107.913846 9.964308v-35.091693l107.913846-9.964307v-29.026462l-87.945846 7.798154v-34.658462l87.945846-7.798154v-27.726769c-27.293538 2.599385-55.020308 4.765538-82.747077 5.632l-11.69723-32.925538c94.444308-5.198769 171.126154-14.296615 230.006153-27.726769z m-7.758769-87.945847h-238.276923v40.290462h238.276923v-40.290462z" fill="#1296db" p-id="2795"></path></svg>