<svg t="1728309374755" class="icon" viewBox="0 0 1024 1024" version="1.1" xmlns="http://www.w3.org/2000/svg" p-id="5393" id="mx_n_1728309374756" width="200" height="200"><path d="M896 288H128a42.666667 42.666667 0 0 0-42.666667 42.666667v554.666666a42.666667 42.666667 0 0 0 42.666667 42.666667h768a42.666667 42.666667 0 0 0 42.666667-42.666667v-554.666666a42.666667 42.666667 0 0 0-42.666667-42.666667z m0 597.333333H128v-362.666666h170.666667v106.666666h42.666666v-106.666666h341.333334v106.666666h42.666666v-106.666666h170.666667z m0-405.333333H128v-149.333333h768zM298.666667 138.666667h426.666666v106.666666h42.666667v-106.666666a42.666667 42.666667 0 0 0-42.666667-42.666667H298.666667a42.666667 42.666667 0 0 0-42.666667 42.666667v106.666666h42.666667z" fill="#6e9bd6" p-id="5394"></path></svg>