<?xml version="1.0" standalone="no"?><!DOCTYPE svg PUBLIC "-//W3C//DTD SVG 1.1//EN" "http://www.w3.org/Graphics/SVG/1.1/DTD/svg11.dtd"><svg t="1728723165181" class="icon" viewBox="0 0 1024 1024" version="1.1" xmlns="http://www.w3.org/2000/svg" p-id="15301" xmlns:xlink="http://www.w3.org/1999/xlink" width="200" height="200"><path d="M662.374 535.606c4.222-1.78 8.047-2.891 11.822-3.115v-12.57h-15.269c0.223 5.005 1.446 10.343 3.447 15.684z" p-id="15302" fill="#2c2c2c"></path><path d="M658.926 516.327h15.269v-12.312c-3.778-0.223-7.6-1.337-11.823-3.115-2 5.231-3.223 10.201-3.447 15.428z" p-id="15303" fill="#2c2c2c"></path><path d="M671.265 552.292c1.226 0.223 1.822 0.334 2.933 0.334v-16.685c-3.553 0.223-6.935 1.003-10.71 2.337 1.994 5.004 4.664 9.901 7.776 14.015z" p-id="15304" fill="#2c2c2c"></path><path d="M674.199 500.566v-16.685c-1.114 0-1.707 0.111-2.933 0.333-2.999 4.117-5.778 8.787-7.89 13.906 3.667 1.337 7.153 2.226 10.822 2.446z" p-id="15305" fill="#2c2c2c"></path><path d="M689.273 538.275c-3.778-1.331-7.925-2.113-11.483-2.337v16.685c1.114 0 2.482-0.111 3.701-0.334 3.11-4.117 5.779-9.009 7.783-14.015z" p-id="15306" fill="#2c2c2c"></path><path d="M688.026 488.793c0 8.902 7.208 16.115 16.1 16.115s16.101-7.214 16.101-16.115c0-8.902-7.208-16.115-16.101-16.115-8.892 0-16.101 7.215-16.101 16.115zM707.814 483.465l7.17 1.379-4.99 5.332 0.907 7.252-6.612-3.105-6.611 3.105 0.908-7.253-4.99-5.332 7.171-1.379 3.527-6.4 3.526 6.4z" p-id="15307" fill="#2c2c2c"></path><path d="M699.717 543.727c-2.114-1.559-4.665-3.005-7.557-4.229-1.557 4.229-3.668 8.233-6.226 11.678 5.225-1.223 9.893-3.892 13.782-7.451z" p-id="15308" fill="#2c2c2c"></path><path d="M653.034 543.727c3.889 3.558 8.561 6.229 13.783 7.451-2.554-3.447-4.672-7.451-6.226-11.678-2.887 1.222-5.446 2.669-7.558 4.229z" p-id="15309" fill="#2c2c2c"></path><path d="M666.823 485.217c-5.225 1.332-9.893 4.002-13.787 7.561 2 1.446 4.559 2.891 7.447 4.116 1.666-4.226 3.893-8.339 6.337-11.676z" p-id="15310" fill="#2c2c2c"></path><path d="M659.374 536.719c-2.333-6.008-3.667-12.124-3.778-16.798h-13.448c0.337 8.339 3.447 15.796 8.558 21.467 2.33-1.666 5.332-3.223 8.669-4.669z" p-id="15311" fill="#2c2c2c"></path><path d="M659.374 499.787c-3.333-1.446-6.336-3.003-8.669-4.672-5.112 5.673-8.223 12.868-8.558 21.213h13.447c0.223-4.785 1.557-10.537 3.779-16.541z" p-id="15312" fill="#2c2c2c"></path><path d="M498.688 262.88c0 28.608 4.704 56.064 13.152 81.856 40.896 201.056 252.928 329.28 252.928 329.28s248.416-151.36 257.6-382.912C1023.328 281.792 1024 272.416 1024 262.88 1024 117.696 906.4 0 761.344 0 616.288 0 498.688 117.696 498.688 262.88zM948.384 242.4c0 103.392-83.744 187.2-187.04 187.2-103.296 0-187.04-83.808-187.04-187.2 0-103.392 83.744-187.2 187.04-187.2C864.64 55.2 948.384 139.008 948.384 242.4z" p-id="15313" fill="#2c2c2c"></path><path d="M638.944 196.544 696.928 258.496 686.4 342.752 763.2 306.688 840 342.752 829.472 258.496 887.488 196.544 804.16 180.512 763.2 106.176 722.24 180.512Z" p-id="15314" fill="#2c2c2c"></path><path d="M439.008 1024c207.552 0 377.664-138.976 425.248-330.4-20.96 18.272-40.096 33.376-55.904 45.12-16.992 42.624-41.024 81.344-71.104 114.688-27.104-19.392-61.984-37.472-100.704-54.272 13.664-35.168 24.32-70.624 31.776-104.128-10.848-9.312-22.048-19.52-33.6-30.464-6.72 39.84-17.664 80.736-33.024 121.696-49.056-20.672-102.4-33.6-146.304-36.192l0-146.016 121.6 0c-11.456-13.28-22.784-27.072-33.728-41.76L455.36 562.272l0-143.04c2.56-0.16 5.44-0.672 8.064-0.896-8.672-23.008-16.256-46.656-21.312-71.456-10.816-32.992-16.832-68.128-16.832-104.704 0-33.696 5.088-66.176 14.304-96.864-0.192 0-0.384-0.032-0.608-0.032C193.664 145.28 0 339.104 0 584.64 0 830.176 193.664 1024 439.008 1024zM622.336 831.456c33.568 14.208 63.232 31.008 87.776 49.12-45.184 41.344-99.424 72.352-160.096 86.56C579.712 927.104 604.256 880.576 622.336 831.456zM455.36 790.112c41.344 2.592 89.504 11.648 133.408 27.136-23.264 58.144-54.272 115.008-90.4 162.848-14.176 2.592-30.08 3.872-43.008 3.872L455.36 790.112zM167.808 880.576c24.544-18.112 54.272-34.912 87.84-49.12 18.048 49.12 42.592 95.648 72.32 135.68C267.264 952.928 213.024 921.92 167.808 880.576zM413.664 983.936c-12.928 0-19.84-1.28-34.08-3.872-36.128-47.808-67.136-104.672-90.336-162.848 43.904-15.488 83.136-24.544 124.416-27.136L413.664 983.936zM413.664 750.048c-43.904 2.592-88.288 15.488-137.344 36.192-23.232-62.048-37.44-124.064-40.032-182.208l177.376 0L413.664 750.048zM413.664 562.272 236.256 562.272c2.592-60.736 16.8-118.496 40.032-179.232 49.056 20.672 93.472 33.568 137.344 36.192L413.632 562.272zM413.664 185.344l0 193.824c-42.592-2.592-83.136-12.928-125.728-28.416 24.512-59.424 56.832-113.728 91.648-161.536C393.792 186.624 400.736 185.344 413.664 185.344zM327.968 200.864c-28.416 38.752-54.272 86.592-73.6 135.68-33.568-14.208-63.296-31.008-86.528-47.808C213.024 247.36 267.264 216.352 327.968 200.864zM140.704 315.872c27.104 19.392 61.984 37.472 100.704 54.272-25.824 69.792-41.312 136.576-43.904 192.16L41.312 562.304C45.184 465.376 81.344 381.76 140.704 315.872zM197.536 604.032c1.312 54.272 16.8 125.344 43.904 195.136-38.72 16.8-73.6 34.88-100.704 54.272-59.392-65.888-95.52-152.48-99.424-249.376L197.536 604.064z" p-id="15315" fill="#2c2c2c"></path></svg>