<?xml version="1.0" standalone="no"?><!DOCTYPE svg PUBLIC "-//W3C//DTD SVG 1.1//EN" "http://www.w3.org/Graphics/SVG/1.1/DTD/svg11.dtd"><svg t="1728722494687" class="icon" viewBox="0 0 1163 1024" version="1.1" xmlns="http://www.w3.org/2000/svg" p-id="10254" xmlns:xlink="http://www.w3.org/1999/xlink" width="227.1484375" height="200"><path d="M46.545452 1024a46.545452 46.545452 0 1 1 0-93.090904h1070.545394a46.545452 46.545452 0 0 1 0 93.090904z m446.213793-174.545445l84.945449-440.319975L1006.545397 240.523681V680.727292a168.581809 168.581809 0 0 1-168.727263 168.727263z m-69.23636 0H325.818163a168.587627 168.587627 0 0 1-168.727263-168.727263V297.960769l351.586889 110.190539L423.563612 849.454555zM545.919969 348.608038L157.0909 226.740409V168.727321A168.587627 168.587627 0 0 1 325.818163 0.000058h511.999971a168.581809 168.581809 0 0 1 168.727263 167.505445z m0 0z" p-id="10255" fill="#2c2c2c"></path></svg>