<?xml version="1.0" standalone="no"?><!DOCTYPE svg PUBLIC "-//W3C//DTD SVG 1.1//EN" "http://www.w3.org/Graphics/SVG/1.1/DTD/svg11.dtd"><svg t="1728872048210" class="icon" viewBox="0 0 1024 1024" version="1.1" xmlns="http://www.w3.org/2000/svg" p-id="1589" xmlns:xlink="http://www.w3.org/1999/xlink" width="200" height="200"><path d="M134.12864 948.3776c-25.79456 0-46.77632-21.79072-46.77632-48.5632V123.70944c0-26.78272 20.98176-48.56832 46.77632-48.56832h720.6656c25.78944 0 46.77632 21.7856 46.77632 48.56832V353.1776h-41.65632V118.6048l-730.88-1.8432v788.08576l228.17792 1.80224v41.73824l-223.08352-0.01024z" p-id="1590" fill="#1296db"></path><path d="M198.1696 208.53248h380.64128v41.66144H198.1696zM198.1696 347.05408h302.90432v41.65632H198.1696zM198.1696 485.53984h196.60288v41.66144H198.1696zM198.1696 624.09216h196.60288v41.6512H198.1696zM686.62784 749.12768a124.0576 124.0576 0 0 1-34.94912-5.00224c-36.46464-10.63424-66.59072-38.08768-80.57856-73.45664a123.71456 123.71456 0 0 1-8.7296-45.81888c0-68.52096 55.75168-124.26752 124.2624-124.26752 8.28928 0 16.54272 0.80384 24.5504 2.38592l5.48864 1.08544-9.25696 31.58016-4.52096-0.80896a92.16512 92.16512 0 0 0-16.26624-1.41824 90.74688 90.74688 0 0 0-64.59904 26.77248 90.76224 90.76224 0 0 0-26.77248 64.59392c0 11.65824 2.16064 22.9888 6.42048 33.69984a90.22976 90.22976 0 0 0 20.33152 30.90944 90.67008 90.67008 0 0 0 38.94272 23.1424c8.1664 2.42176 16.78336 3.64032 25.6768 3.64032a90.8288 90.8288 0 0 0 64.60928-26.77248 90.81856 90.81856 0 0 0 26.77248-64.61952 91.7504 91.7504 0 0 0-3.30752-24.46336l-1.23904-4.43904 30.61248-12.09344 1.60256 5.32992a124.01664 124.01664 0 0 1 5.22752 35.74272c-0.01024 68.53632-55.7568 124.27776-124.27776 124.27776z" p-id="1591" fill="#1296db"></path><path d="M763.20256 565.22752a20.02944 20.02944 0 0 1-19.99872-20.0192 20.0192 20.0192 0 0 1 19.99872-19.9936 20.02432 20.02432 0 0 1 20.00896 19.9936 20.03456 20.03456 0 0 1-20.00896 20.0192z" p-id="1592" fill="#1296db"></path><path d="M720.72192 837.7856l-3.54304-6.784-6.95296 0.75776a215.2448 215.2448 0 0 1-23.58784 1.28c-8.30976 0-16.37376-0.44544-23.99232-1.3312l-6.58944-0.74752-3.94752 6.65088-64.25088 111.29344-69.15072-73.344-100.34688-24.42752 74.68032-129.38752 3.46112-5.63712-2.37056-5.01248c-13.52192-28.54912-20.3776-59.15136-20.3776-90.9568 0-117.38624 95.50336-212.88448 212.89472-212.88448 56.8576 0 110.32064 22.144 150.51776 62.35648s62.33088 93.6704 62.30016 150.52288c0 31.24224-6.58944 61.28128-19.57888 89.32864l-3.71712 7.97184 3.63008 4.38784 74.61376 129.36192-100.37248 24.42752-69.1456 73.35936-64.17408-111.18592z m-141.9264 57.1904l40.68352-67.78368 3.2768-3.88096a219.12064 219.12064 0 0 1-19.00544-7.01952 212.29568 212.29568 0 0 1-67.72224-45.6192 216.41216 216.41216 0 0 1-19.03104-21.82656l-4.18816 3.02592-43.19232 75.83232 59.5712 14.37696 49.60768 52.89472z m277.17632-145.8176a216.2944 216.2944 0 0 1-18.83648 21.55008 211.57376 211.57376 0 0 1-67.64032 45.568 205.60896 205.60896 0 0 1-19.38944 7.14752l3.2 3.84 35.54816 72.81664 49.60256-58.01472 69.8112-14.36672L860.16 752.25088l-4.18816-3.09248z m-167.38304 53.43744l0.38912-0.01024a181.5808 181.5808 0 0 0 68.66944-14.32576 181.3504 181.3504 0 0 0 58.03008-39.07072 182.8864 182.8864 0 0 0 39.08096-58.02496 175.31904 175.31904 0 0 0 7.3472-20.71552 184.35584 184.35584 0 0 0 6.97856-50.30912c0-24.61184-4.8128-48.50176-14.32576-71.00928a181.62688 181.62688 0 0 0-39.08096-58.03008 182.6304 182.6304 0 0 0-58.03008-39.08096c-22.5024-9.50272-46.39744-14.32064-71.01952-14.32064s-48.51712 4.81792-71.00416 14.32064a180.8128 180.8128 0 0 0-58.05568 39.09632 182.72768 182.72768 0 0 0-39.06048 58.01472 181.45792 181.45792 0 0 0-14.31552 71.0144c0 24.61696 4.8128 48.51712 14.30528 71.00928a182.08768 182.08768 0 0 0 39.08096 58.04032 182.86592 182.86592 0 0 0 58.04544 39.08096 181.632 181.632 0 0 0 71.00416 14.31552l1.4592-0.0256 0.50176 0.03072z" p-id="1593" fill="#1296db"></path></svg>